<?xml version="1.0" encoding="utf-8"?>
<!-- Generator: Adobe Illustrator 19.1.1, SVG Export Plug-In . SVG Version: 6.00 Build 0)  -->
<svg version="1.1" id="图层_1" xmlns="http://www.w3.org/2000/svg" xmlns:xlink="http://www.w3.org/1999/xlink" x="0px" y="0px"
	 viewBox="0 0 22 22" style="enable-background:new 0 0 22 22;" xml:space="preserve">
<style type="text/css">
	.st0{fill:#EB2000;}
</style>
<g>
	<path class="st0" d="M19,18.2H3c-1.6,0-2.4-2-1.3-3.2l1.3-1.5c1.2-1.4,1.9-3.2,1.9-5V6.1C4.8,2.7,7.4,0,10.7,0l0.2,0
		c3.2,0,5.9,2.7,5.9,6.1v2.2c0,2,0.8,3.9,2.2,5.4l1.3,1.3C21.5,16.1,20.7,18.2,19,18.2z"/>
	<path class="st0" d="M14.8,18.2c0,2.1-1.7,3.8-3.8,3.8s-3.8-1.7-3.8-3.8"/>
</g>
</svg>
