<?xml version="1.0" encoding="utf-8"?>
<!-- Generator: Adobe Illustrator 19.1.1, SVG Export Plug-In . SVG Version: 6.00 Build 0)  -->
<svg version="1.1" id="图层_1" xmlns="http://www.w3.org/2000/svg" xmlns:xlink="http://www.w3.org/1999/xlink" x="0px" y="0px"
	 viewBox="0 0 22 22" style="enable-background:new 0 0 22 22;" xml:space="preserve">
<style type="text/css">
	.st0{fill:#41CAC0;}
</style>
<g>
	<path class="st0" d="M20,6.3H2c-1.1,0-2-0.9-2-2v-1c0-1.1,0.9-2,2-2h18c1.1,0,2,0.9,2,2v1C22,5.4,21.1,6.3,20,6.3z"/>
	<path class="st0" d="M17.5,20.7h-13C3.7,20.7,3,20,3,19.2v-9c0-0.8,0.7-1.5,1.5-1.5h13c0.8,0,1.5,0.7,1.5,1.5v9
		C19,20,18.3,20.7,17.5,20.7z"/>
</g>
</svg>
