<?xml version="1.0" encoding="utf-8"?>
<!-- Generator: Adobe Illustrator 19.1.1, SVG Export Plug-In . SVG Version: 6.00 Build 0)  -->
<svg version="1.1" id="图层_1" xmlns="http://www.w3.org/2000/svg" xmlns:xlink="http://www.w3.org/1999/xlink" x="0px" y="0px"
	 viewBox="0 0 18 18" style="enable-background:new 0 0 18 18;" xml:space="preserve">
<style type="text/css">
	.st0{fill:#EB2000;}
</style>
<g>
	<path class="st0" d="M16.5,7.2h-4.8C13.6,0.4,10.4,0,10.4,0C9.1,0,9.4,1.1,9.3,1.2c0,3.4-3.6,6-3.6,6v9.5C5.7,17.7,7,18,7.5,18h7.2
		c0.7,0,1.2-1.8,1.2-1.8c1.8-6.1,1.8-7.9,1.8-7.9C17.7,7.1,16.5,7.2,16.5,7.2L16.5,7.2L16.5,7.2z M16.5,7.2"/>
	<path class="st0" d="M3.8,7.2H0.9c-0.6,0-0.6,0.6-0.6,0.6l0.6,9.6C0.9,18,1.5,18,1.5,18H4c0.5,0,0.5-0.4,0.5-0.4V7.9
		C4.5,7.2,3.8,7.2,3.8,7.2L3.8,7.2L3.8,7.2z M3.8,7.2"/>
</g>
</svg>
