<?xml version="1.0" encoding="utf-8"?>
<!-- Generator: Adobe Illustrator 19.1.1, SVG Export Plug-In . SVG Version: 6.00 Build 0)  -->
<svg version="1.1" id="图层_1" xmlns="http://www.w3.org/2000/svg" xmlns:xlink="http://www.w3.org/1999/xlink" x="0px" y="0px"
	 viewBox="0 0 22 22" style="enable-background:new 0 0 22 22;" xml:space="preserve">
<style type="text/css">
	.st0{fill:#57C8F2;}
</style>
<g>
	<path class="st0" d="M11.1,0C5,0,0.1,4.3,0,9.4c0,2.3,0.7,3.6,2.2,5.9c0.7,0.9,1.9,2.1,3.1,3.1C7.3,20.1,9.6,22,10,22
		c1.1,0-1.9-3.6-0.2-3.6c0.3,0,2-0.1,3.2-0.2c6-0.6,9.1-4.3,9.1-9C22,4.1,17.2,0,11.1,0L11.1,0L11.1,0z M15,11.1
		c-0.8,0-1.4-0.7-1.3-1.3c0-0.7,0.5-1.3,1.3-1.3c0.8,0,1.4,0.6,1.4,1.3C16.4,10.4,15.8,11.1,15,11.1L15,11.1L15,11.1z M10.4,11.1
		c-0.8,0-1.3-0.7-1.3-1.3c0-0.7,0.5-1.3,1.3-1.3s1.4,0.6,1.4,1.3C11.8,10.4,11.2,11.1,10.4,11.1L10.4,11.1L10.4,11.1z M5.8,11.1
		c-0.7,0-1.3-0.7-1.3-1.3c0-0.7,0.5-1.3,1.3-1.3c0.7,0,1.3,0.6,1.3,1.3C7.1,10.4,6.6,11.1,5.8,11.1L5.8,11.1L5.8,11.1z M5.8,11.1"/>
</g>
</svg>
