<?xml version="1.0" encoding="utf-8"?>
<!-- Generator: Adobe Illustrator 19.1.1, SVG Export Plug-In . SVG Version: 6.00 Build 0)  -->
<svg version="1.1" id="图层_1" xmlns="http://www.w3.org/2000/svg" xmlns:xlink="http://www.w3.org/1999/xlink" x="0px" y="0px"
	 viewBox="0 0 26 26" style="enable-background:new 0 0 26 26;" xml:space="preserve">
<style type="text/css">
	.st0{fill:#F4F4F4;stroke:#231815;stroke-miterlimit:10;}
	.st1{fill:none;stroke:#231815;stroke-miterlimit:10;}
	.st2{fill:none;stroke:#231815;stroke-linecap:round;stroke-miterlimit:10;}
</style>
<g>
	<path class="st0" d="M9,18.8v-7.6c0-0.9,1.2-1.5,2.2-1l7.2,3.8c0.9,0.5,0.9,1.6,0,2l-7.2,3.8C10.2,20.3,9,19.7,9,18.8z"/>
	<g>
		<path class="st1" d="M22,24H4c-1.1,0-2-0.9-2-2V8c0-1.1,0.9-2,2-2h18c1.1,0,2,0.9,2,2v14C24,23.1,23.1,24,22,24z"/>
		<line class="st2" x1="15" y1="6" x2="18" y2="2"/>
		<line class="st2" x1="11" y1="6" x2="8" y2="2"/>
	</g>
</g>
</svg>
