<?xml version="1.0" encoding="utf-8"?>
<!-- Generator: Adobe Illustrator 19.1.1, SVG Export Plug-In . SVG Version: 6.00 Build 0)  -->
<svg version="1.1" id="图层_1" xmlns="http://www.w3.org/2000/svg" xmlns:xlink="http://www.w3.org/1999/xlink" x="0px" y="0px"
	 viewBox="0 0 18 18" style="enable-background:new 0 0 18 18;" xml:space="preserve">
<style type="text/css">
	.st0{fill:#EB2000;}
</style>
<g>
	<path class="st0" d="M15.7,0.8H2.2C1,0.8,0,1.8,0,3.1v9c0,1.2,1,2.2,2.2,2.2h4.4L9,17.2l2.3-2.8h4.4c1.2,0,2.3-1,2.3-2.2v-9
		C18,1.8,17,0.8,15.7,0.8L15.7,0.8z M3.9,9.3c-1,0-1.7-0.8-1.7-1.7c0-1,0.8-1.7,1.7-1.7s1.7,0.8,1.7,1.7C5.6,8.5,4.8,9.3,3.9,9.3
		L3.9,9.3z M9,9.3c-1,0-1.7-0.8-1.7-1.7c0-1,0.8-1.7,1.7-1.7c1,0,1.7,0.8,1.7,1.7C10.7,8.5,9.9,9.3,9,9.3L9,9.3z M14,9.3
		c-1,0-1.7-0.8-1.7-1.7c0-1,0.8-1.7,1.7-1.7c1,0,1.7,0.8,1.7,1.7C15.8,8.5,15,9.3,14,9.3L14,9.3z M14,9.3"/>
</g>
</svg>
