<?xml version="1.0" encoding="utf-8"?>
<!-- Generator: Adobe Illustrator 19.1.1, SVG Export Plug-In . SVG Version: 6.00 Build 0)  -->
<svg version="1.1" id="图层_1" xmlns="http://www.w3.org/2000/svg" xmlns:xlink="http://www.w3.org/1999/xlink" x="0px" y="0px"
	 viewBox="0 0 20 20" style="enable-background:new 0 0 20 20;" xml:space="preserve">
<style type="text/css">
	.st0{fill:#FFC200;}
</style>
<g>
	<path class="st0" d="M7.1,6c0,0.4,0.1,0.8,0.2,1.1C7.5,7.5,7.7,7.8,8,8.1c0.3,0.3,0.6,0.5,0.9,0.6C9.3,8.9,9.7,9,10.1,9
		c0.4,0,0.8-0.1,1.1-0.2c0.4-0.1,0.7-0.4,0.9-0.6c0.3-0.3,0.5-0.6,0.6-0.9C12.9,6.8,13,6.4,13,6c0-0.4-0.1-0.8-0.2-1.1
		c-0.1-0.4-0.4-0.7-0.6-0.9c-0.3-0.3-0.6-0.5-0.9-0.6c-0.4-0.1-0.7-0.2-1.1-0.2c-0.4,0-0.8,0.1-1.1,0.2C8.6,3.5,8.3,3.7,8,4
		C7.7,4.2,7.5,4.6,7.4,4.9C7.2,5.3,7.1,5.7,7.1,6L7.1,6z M7.1,6"/>
	<path class="st0" d="M16.1,6c0-3.3-2.7-6-6-6C6.7,0,4,2.7,4,6c0,1.8,0.8,3.3,2,4.4l-2.1,8.4l2.6-1.2L8.2,20l1.8-7.2l1.8,7.2
		l1.7-2.2l2.6,1.2L14,10.6C15.3,9.5,16.1,7.8,16.1,6L16.1,6z M5.6,6c0-2.4,2-4.4,4.4-4.4c2.4,0,4.4,2,4.4,4.4c0,2.4-2,4.4-4.4,4.4
		C7.6,10.5,5.6,8.5,5.6,6L5.6,6z M5.6,6"/>
</g>
</svg>
