<?xml version="1.0" encoding="utf-8"?>
<!-- Generator: Adobe Illustrator 19.1.1, SVG Export Plug-In . SVG Version: 6.00 Build 0)  -->
<svg version="1.1" id="图层_1" xmlns="http://www.w3.org/2000/svg" xmlns:xlink="http://www.w3.org/1999/xlink" x="0px" y="0px"
	 viewBox="0 0 26 26" style="enable-background:new 0 0 26 26;" xml:space="preserve">
<style type="text/css">
	.st0{fill:none;stroke:#231815;stroke-miterlimit:10;}
	.st1{fill:none;stroke:#231815;stroke-linecap:round;stroke-miterlimit:10;}
	.st2{fill:#231815;}
	.st3{fill:none;stroke:#231815;stroke-linecap:round;stroke-linejoin:round;stroke-miterlimit:10;}
</style>
<g>
	<g>
		<path class="st0" d="M23,19.5H3c-1.1,0-2-0.9-2-2v-14c0-1.1,0.9-2,2-2h20c1.1,0,2,0.9,2,2v14C25,18.6,24.1,19.5,23,19.5z"/>
		<g>
			<line class="st1" x1="13" y1="19.5" x2="8" y2="24.5"/>
			<line class="st1" x1="13" y1="19.5" x2="18" y2="24.5"/>
		</g>
	</g>
	<g>
		<path class="st2" d="M20.7,6.3l0.1,3c0,0.1-0.1,0.1-0.2,0l-3.2-2.9c-0.1-0.1-0.1-0.2,0-0.2l3-0.1C20.6,6.2,20.7,6.2,20.7,6.3z"/>
		<polyline class="st3" points="19.2,7.8 13.2,13.8 9.2,9.8 5.2,13.8 		"/>
	</g>
</g>
</svg>
