<?xml version="1.0" encoding="utf-8"?>
<!-- Generator: Adobe Illustrator 19.1.1, SVG Export Plug-In . SVG Version: 6.00 Build 0)  -->
<svg version="1.1" id="图层_1" xmlns="http://www.w3.org/2000/svg" xmlns:xlink="http://www.w3.org/1999/xlink" x="0px" y="0px"
	 viewBox="0 0 120 120" style="enable-background:new 0 0 120 120;" xml:space="preserve">
<style type="text/css">
	.st0{opacity:0.66;}
	.st1{fill:#FFFFFF;}
</style>
<path class="st0" d="M116,120H4c-2.2,0-4-1.8-4-4V4c0-2.2,1.8-4,4-4h112c2.2,0,4,1.8,4,4v112C120,118.2,118.2,120,116,120z"/>
<g>
	<path class="st1" d="M29.2,97.6L29,96.5c0.6,0,1,0.1,1.3,0.1c0.4,0,0.6-0.2,0.6-0.5v-4c-0.7,0.3-1.3,0.5-1.9,0.7l-0.3-1.2
		c0.7-0.2,1.4-0.4,2.1-0.7v-3.6h-1.9v-1.1h1.9v-3H32v3h1.6v1.1H32v3.1c0.6-0.3,1.1-0.5,1.4-0.7v1.2c-0.3,0.2-0.8,0.4-1.4,0.7v4.8
		c0,0.9-0.4,1.3-1.3,1.3H29.2z M33.8,90.3h9.2v1h-4v1.8h3.3v1h-3.3v2.1c0.6,0.1,1.4,0.1,2.3,0.1c0.8,0,1.5,0,2.1-0.1L43,97.4l-1.7,0
		c-2.1,0-3.5-0.2-4.3-0.6c-0.6-0.3-1.2-0.9-1.6-1.8c-0.4,1-0.9,1.9-1.6,2.7L32.8,97c1.2-1.5,1.9-3.1,2-5l1,0.1
		c0,0.6-0.1,1.1-0.2,1.7c0.5,1.1,1.1,1.8,1.8,2.1l0.4,0.1v-4.7h-4V90.3z M34.9,83.6h7v5.6h-7V83.6z M36,85.9h4.7v-1.4H36V85.9z
		 M40.7,88.2v-1.4H36v1.4H40.7z"/>
	<path class="st1" d="M45.5,85.7h1.2v12h-1.2V85.7z M47.9,82.9c0.8,0.9,1.4,1.9,2,2.9l-1,0.5c-0.6-1.1-1.3-2-2-3L47.9,82.9z
		 M49.1,88h5.8v6h-5.8V88z M53.7,92.9v-3.8h-3.4v3.8H53.7z M54.9,97.6l-0.3-1.1l1.8,0c0.6,0,0.9-0.4,0.9-1.1V85.1h-6.2V84h7.4v11.9
		c0,1.2-0.6,1.8-1.8,1.8H54.9z"/>
	<path class="st1" d="M71.9,83c0.8,0.6,1.4,1.2,2,1.8l-0.7,0.7h2v1.1h-4.9c0.1,2,0.3,3.5,0.6,4.7c0.1,0.3,0.2,0.7,0.3,1.1
		c0.8-1.3,1.4-2.8,1.9-4.5l1,0.4c-0.7,2.1-1.5,3.9-2.5,5.3c0.2,0.5,0.5,1,0.7,1.3c0.5,0.8,1,1.2,1.3,1.2c0.3,0,0.6-0.9,0.8-2.5
		l1,0.6c-0.4,2.1-0.9,3.2-1.6,3.2c-0.7,0-1.4-0.5-2.2-1.4c-0.3-0.4-0.6-0.8-0.8-1.3c-1.1,1.3-2.4,2.3-3.9,3l-0.6-1
		c1.6-0.7,3-1.8,4.1-3.2c-0.2-0.6-0.4-1.3-0.6-1.9c-0.3-1.3-0.6-3-0.7-5h-5.5v2.7h3.9c0,2.7-0.2,4.4-0.4,5.2c-0.2,0.7-0.7,1-1.5,1.1
		c-0.2,0-0.7,0-1.4-0.1l-0.4-1c0.6,0,1.2,0,1.6,0c0.4,0,0.6-0.2,0.7-0.7c0.1-0.5,0.1-1.6,0.2-3.5h-2.8v0.5c-0.1,2.9-0.7,5.2-1.9,6.9
		l-0.9-0.8c1-1.5,1.5-3.5,1.6-6.1v-5.3h6.6c0-0.8,0-1.6,0-2.5h1.2c0,0.9,0,1.7,0,2.5h3c-0.5-0.6-1.1-1.2-1.9-1.8L71.9,83z"/>
	<path class="st1" d="M79.1,85.7h-2.3v-1.1h5.8v1.1h-2.3v7.7c0.8-0.2,1.6-0.5,2.5-0.9v1.2C81,94.4,79,95,77,95.5l-0.3-1.2
		c0.9-0.2,1.7-0.4,2.4-0.5V85.7z M85.6,83.1h1.2v3h4.1c0,5.1-0.1,8.3-0.2,9.6c-0.2,1.3-1.1,2-2.7,2l-1.5-0.1l-0.3-1.1
		c0.6,0,1.1,0,1.6,0c1,0,1.6-0.4,1.8-1.3c0.1-0.9,0.2-3.5,0.2-8h-2.9v0.2c-0.1,4.8-1.3,8.3-3.8,10.4L82,97c2.4-2,3.6-5.2,3.6-9.6
		v-0.2h-2.4v-1.1h2.4V83.1z"/>
</g>
<path class="st1" d="M53,68.6l33-33.8c0.6-0.6,0.5-1.6-0.1-2.1l0,0c-0.5-0.4-1.3-0.4-1.8,0L52.9,58.7c-0.7,0.6-1.8,0.6-2.5,0
	l-12.2-9.6c-0.8-0.7-2.1-0.5-2.8,0.3L34,50.9c-0.7,0.8-0.6,2,0.2,2.8l16,15C51,69.4,52.3,69.4,53,68.6z"/>
</svg>
