<?xml version="1.0" encoding="utf-8"?>
<!-- Generator: Adobe Illustrator 19.1.1, SVG Export Plug-In . SVG Version: 6.00 Build 0)  -->
<svg version="1.1" id="图层_1" xmlns="http://www.w3.org/2000/svg" xmlns:xlink="http://www.w3.org/1999/xlink" x="0px" y="0px"
	 viewBox="0 0 120 120" style="enable-background:new 0 0 120 120;" xml:space="preserve">
<style type="text/css">
	.st0{fill:#EB2000;}
	.st1{fill:#FFFFFF;}
	.st2{fill:none;stroke:#FFFFFF;stroke-width:6;stroke-linecap:round;stroke-miterlimit:10;}
</style>
<path class="st0" d="M60,112L60,112C31.3,112,8,88.7,8,60v0C8,31.3,31.3,8,60,8h0c28.7,0,52,23.3,52,52v0C112,88.7,88.7,112,60,112z
	"/>
<g>
	<path class="st1" d="M40.8,95.5l-0.2-0.9c0.3,0,0.6,0.1,0.8,0.1c0.2,0,0.3-0.1,0.3-0.3v-2.2c-0.2,0.1-0.6,0.2-1,0.4l-0.2-1
		c0.4-0.1,0.8-0.2,1.3-0.4v-2.1h-1.1v-0.9h1.1v-1.8h1v1.8h0.9v0.9h-0.9v1.7c0.2-0.1,0.5-0.2,0.8-0.4v1l-0.8,0.4v2.8c0,0.6-0.3,1-1,1
		H40.8z M43.6,90.8h5.8v0.8h-2.4v0.9h2v0.8h-2v1.1c0.4,0,0.9,0.1,1.3,0.1c0.5,0,1,0,1.4-0.1l-0.3,0.9c-0.3,0-0.6,0-1.1,0
		c-1.3,0-2.3-0.1-2.7-0.4c-0.4-0.2-0.7-0.5-1-1c-0.2,0.5-0.5,1.1-0.9,1.5L43,95c0.7-0.9,1.1-1.9,1.2-3l0.8,0.1c0,0.3-0.1,0.7-0.1,1
		c0.3,0.6,0.6,1,1,1.1l0.1,0v-2.6h-2.4V90.8z M44.2,86.7h4.5v3.6h-4.5V86.7z M45.1,88.1h2.6v-0.7h-2.6V88.1z M47.8,89.5v-0.7h-2.6
		v0.7H47.8z"/>
	<path class="st1" d="M50.8,88h1v7.6h-1V88z M52.6,86.3c0.4,0.5,0.8,1.1,1.2,1.8l-0.9,0.4c-0.4-0.7-0.8-1.3-1.2-1.8L52.6,86.3z
		 M53.1,89.4h3.8v4h-3.8V89.4z M55.9,92.5v-2.2H54v2.2H55.9z M56.9,95.5l-0.2-0.9l1.1,0c0.3,0,0.5-0.2,0.5-0.6v-6.3h-3.8v-0.9h4.8
		v7.5c0,0.8-0.4,1.2-1.3,1.2H56.9z"/>
	<path class="st1" d="M63.3,86.9c-0.1,0.4-0.3,0.8-0.5,1.1h1.7v-1.7h1v1.7h3.3V89h-3.3v0.5c0,0.4-0.1,0.9-0.1,1.3h4v0.9h-3.6
		c0.5,1.3,1.7,2.4,3.7,3.1L69,95.6c-2.1-0.9-3.4-2.1-4-3.6c-0.2,0.5-0.4,1-0.7,1.5c-0.7,0.9-1.8,1.6-3.4,2.1l-0.5-0.8
		c1.6-0.5,2.6-1.2,3.2-2c0.2-0.4,0.4-0.7,0.5-1.2h-3.6v-0.9h3.8c0.1-0.4,0.1-0.8,0.1-1.3V89h-2.2c-0.3,0.5-0.7,1-1.1,1.4l-0.8-0.7
		c0.9-0.8,1.6-1.8,2-3.1L63.3,86.9z"/>
	<path class="st1" d="M72.3,88.2h0.8v3.1c0,1.2-0.2,2.1-0.5,2.8c-0.3,0.6-0.9,1.2-1.6,1.5l-0.5-0.8c0.7-0.3,1.2-0.8,1.4-1.3
		c0.2-0.6,0.4-1.3,0.4-2.2V88.2z M74.6,86.7v6.4h-0.9v-5.5h-2.2v5.5h-0.9v-6.4H74.6z M73.5,93.3c0.5,0.5,1,1,1.4,1.6l-0.7,0.7
		c-0.3-0.5-0.8-1.1-1.3-1.7L73.5,93.3z M75.2,91.1l-0.6-0.7c0.7-0.9,1.2-2.3,1.4-4l0.9,0.1c-0.1,0.5-0.2,1-0.3,1.4h2.8v0.9h-0.6
		c-0.1,1.7-0.4,3.1-1,4.3c0.5,0.6,1.1,1.2,1.8,1.7l-0.5,0.9c-0.7-0.5-1.3-1.1-1.8-1.7c-0.5,0.7-1.1,1.2-1.8,1.7L75,94.8
		c0.7-0.4,1.3-1,1.8-1.7c-0.5-0.8-0.8-1.7-1-2.8C75.6,90.7,75.4,90.9,75.2,91.1z M78,88.8h-1.6L76.3,89c0.1,1.2,0.5,2.2,1,3.1
		C77.7,91.2,78,90.1,78,88.8z"/>
</g>
<g>
	<line class="st2" x1="40" y1="40" x2="80" y2="80"/>
	<line class="st2" x1="80" y1="40" x2="40" y2="80"/>
</g>
</svg>
