<?xml version="1.0" encoding="utf-8"?>
<!-- Generator: Adobe Illustrator 19.1.1, SVG Export Plug-In . SVG Version: 6.00 Build 0)  -->
<svg version="1.1" id="图层_1" xmlns="http://www.w3.org/2000/svg" xmlns:xlink="http://www.w3.org/1999/xlink" x="0px" y="0px"
	 viewBox="0 0 22 22" style="enable-background:new 0 0 22 22;" xml:space="preserve">
<style type="text/css">
	.st0{fill:#F4F4F4;}
	.st1{fill:#FCB322;}
	.st2{fill:#FFFFFF;}
</style>
<rect x="0" y="0" class="st0" width="22" height="22"/>
<g>
	<path class="st1" d="M18,20H4c-2.2,0-4-1.8-4-4V6c0-2.2,1.8-4,4-4h14c2.2,0,4,1.8,4,4v10C22,18.2,20.2,20,18,20z"/>
	<g>
		<path class="st2" d="M7.2,14.6H6L3.5,7.4h1.3l1.9,5.9h0l1.9-5.9h1.2L7.2,14.6z"/>
		<path class="st2" d="M11.8,14.6h-1.1V7.4h1.1V14.6z"/>
		<path class="st2" d="M13.4,7.4h2.7c0.7,0,1.3,0.2,1.7,0.6c0.4,0.4,0.6,1,0.6,1.7c0,0.7-0.2,1.2-0.6,1.7c-0.4,0.4-1,0.6-1.7,0.6
			h-1.6v2.6h-1.1V7.4z M14.5,8.3v2.8h1c0.3,0,0.6,0,0.8-0.1c0.2,0,0.4-0.1,0.6-0.2c0.2-0.1,0.3-0.2,0.4-0.4c0.1-0.2,0.1-0.4,0.1-0.7
			c0-0.2,0-0.4-0.1-0.6c-0.1-0.2-0.1-0.3-0.3-0.4c-0.1-0.1-0.3-0.2-0.4-0.3S16.2,8.3,16,8.3H14.5z"/>
	</g>
</g>
</svg>
