<?xml version="1.0" encoding="utf-8"?>
<!-- Generator: Adobe Illustrator 19.1.1, SVG Export Plug-In . SVG Version: 6.00 Build 0)  -->
<svg version="1.1" id="图层_1" xmlns="http://www.w3.org/2000/svg" xmlns:xlink="http://www.w3.org/1999/xlink" x="0px" y="0px"
	 viewBox="0 0 26 26" style="enable-background:new 0 0 26 26;" xml:space="preserve">
<style type="text/css">
	.st0{fill:#FFFFFF;}
</style>
<g>
	<path class="st0" d="M17.6,8.8c0.3,0,0.6,0,0.9,0.1c-0.8-3.7-4.8-6.5-9.3-6.5C4.1,2.4,0,5.9,0,10.2c0,2.5,1.4,4.6,3.7,6.2l-0.9,2.8
		L6,17.6c1.2,0.2,2.1,0.5,3.2,0.5c0.3,0,0.6,0,0.9,0c-0.2-0.6-0.3-1.3-0.3-1.9C9.8,12.1,13.2,8.8,17.6,8.8L17.6,8.8z M12.7,6.3
		c0.7,0,1.2,0.5,1.2,1.1c0,0.7-0.5,1.2-1.2,1.2c-0.7,0-1.4-0.5-1.4-1.2C11.3,6.8,12,6.3,12.7,6.3L12.7,6.3z M6.2,8.6
		c-0.7,0-1.4-0.5-1.4-1.2c0-0.7,0.7-1.1,1.4-1.1c0.7,0,1.1,0.5,1.1,1.1C7.4,8.2,6.9,8.6,6.2,8.6L6.2,8.6z M26,16
		c0-3.7-3.7-6.7-7.8-6.7c-4.4,0-7.8,3-7.8,6.7c0,3.7,3.4,6.7,7.8,6.7c0.9,0,1.8-0.2,2.8-0.5l2.5,1.4l-0.7-2.3
		C24.6,19.9,26,18.1,26,16L26,16z M15.6,14.8c-0.5,0-0.9-0.5-0.9-0.9c0-0.5,0.5-0.9,0.9-0.9c0.7,0,1.2,0.5,1.2,0.9
		C16.8,14.4,16.3,14.8,15.6,14.8L15.6,14.8z M20.7,14.8c-0.5,0-0.9-0.5-0.9-0.9c0-0.5,0.5-0.9,0.9-0.9c0.7,0,1.2,0.5,1.2,0.9
		C21.9,14.4,21.4,14.8,20.7,14.8L20.7,14.8z M20.7,14.8"/>
</g>
</svg>
