<?xml version="1.0" encoding="utf-8"?>
<!-- Generator: Adobe Illustrator 19.1.1, SVG Export Plug-In . SVG Version: 6.00 Build 0)  -->
<svg version="1.1" id="图层_1" xmlns="http://www.w3.org/2000/svg" xmlns:xlink="http://www.w3.org/1999/xlink" x="0px" y="0px"
	 viewBox="0 0 22 22" style="enable-background:new 0 0 22 22;" xml:space="preserve">
<style type="text/css">
	.st0{fill:#FFFFFF;}
</style>
<g>
	<path class="st0" d="M21.5,0.5C21.1,0.2,20.7,0,20.2,0c-0.5,0-0.9,0.2-1.3,0.5L18,1.4c0,0,0,0,0,0L7.2,12.2c0,0-0.1,0.1-0.1,0.1
		C7,12.4,7,12.5,7,12.5l-1.1,2.6c-0.1,0.3-0.1,0.6,0.1,0.8C6.1,16,6.3,16,6.5,16c0.1,0,0.2,0,0.2,0l2.7-1c0.1,0,0.1-0.1,0.2-0.1
		c0,0,0.1,0,0.1-0.1L20.6,3.9c0,0,0,0,0,0l0.8-0.8C22.2,2.4,22.2,1.2,21.5,0.5L21.5,0.5L21.5,0.5z M9.2,13.3l-0.6-0.6l9.9-9.9
		l0.6,0.6L9.2,13.3L9.2,13.3L9.2,13.3z M20.5,2.1l-0.3,0.3l-0.6-0.6l0.3-0.3c0.1-0.1,0.2-0.1,0.3-0.1c0.1,0,0.2,0,0.3,0.1
		C20.7,1.7,20.6,2,20.5,2.1L20.5,2.1L20.5,2.1z M19.9,7.8c-0.4,0-0.7,0.3-0.7,0.7v11.4c0,0.4-0.3,0.7-0.7,0.7H2.1
		c-0.4,0-0.7-0.3-0.7-0.7V3.5c0-0.4,0.3-0.7,0.7-0.7h11.4c0.4,0,0.7-0.3,0.7-0.7c0-0.4-0.3-0.7-0.7-0.7H2.1C0.9,1.5,0,2.4,0,3.5
		v16.4C0,21.1,0.9,22,2.1,22h16.4c1.1,0,2.1-0.9,2.1-2.1V8.5C20.6,8.1,20.3,7.8,19.9,7.8L19.9,7.8z M19.9,7.8"/>
</g>
</svg>
