<?xml version="1.0" encoding="utf-8"?>
<!-- Generator: Adobe Illustrator 19.1.1, SVG Export Plug-In . SVG Version: 6.00 Build 0)  -->
<svg version="1.1" id="图层_1" xmlns="http://www.w3.org/2000/svg" xmlns:xlink="http://www.w3.org/1999/xlink" x="0px" y="0px"
	 viewBox="0 0 120 120" style="enable-background:new 0 0 120 120;" xml:space="preserve">
<style type="text/css">
	.st0{opacity:0.66;}
	.st1{fill:#FFFFFF;}
</style>
<path class="st0" d="M116,120H4c-2.2,0-4-1.8-4-4V4c0-2.2,1.8-4,4-4h112c2.2,0,4,1.8,4,4v112C120,118.2,118.2,120,116,120z"/>
<g>
	<path class="st1" d="M49.3,90.3h-9.9v4.8c0,0.7,0.3,1,1,1h8.2c0.4,0,0.7-0.1,0.9-0.3c0.3-0.3,0.5-1.3,0.6-3.1l1.1,0.4
		c-0.2,2-0.4,3.2-0.8,3.6c-0.4,0.3-0.8,0.5-1.5,0.5h-8.8c-1.2,0-1.8-0.6-1.8-1.9v-8.4h1.2v2.3h8.8V85H37.4v-1.1h11.9V90.3z"/>
	<path class="st1" d="M57.2,83.5c-0.4,1.1-0.8,2.2-1.4,3.3v11h-1.2v-9.1c-0.6,0.8-1.2,1.5-1.7,2.1l-0.4-1.2c1.7-1.9,2.9-4.1,3.6-6.6
		L57.2,83.5z M58.2,83.8h7.6v5h-3.2v1.7h4.6v1.1h-3.5c0.9,1.6,2.2,3,3.7,4.2l-0.7,1c-1.6-1.4-2.9-3.1-3.9-5.2h-0.2v6h-1.2v-6h-0.2
		c-1.1,2.2-2.4,4-4,5.2l-0.6-1c1.6-1.1,2.8-2.5,3.8-4.2h-3.3v-1.1h4.4v-1.7h-3.2V83.8z M64.6,87.7v-2.8h-5.3v2.8H64.6z"/>
	<path class="st1" d="M69.2,84.7h4.4c0.2-0.6,0.4-1.2,0.6-1.7l1.2,0.1c-0.2,0.6-0.3,1.1-0.5,1.6H83v1.1h-8.6
		c-0.6,1.4-1.3,2.6-2.2,3.8v8.1h-1.1V91c-0.6,0.6-1.1,1.2-1.7,1.7l-0.7-0.9c1.9-1.7,3.4-3.7,4.5-6h-3.9V84.7z M73.4,92.1h4.6v-1.5
		c0.9-0.5,1.8-1.1,2.6-1.8h-6v-1.1h7.5v1.1c-0.9,0.8-1.9,1.6-2.9,2.3v1h4v1.1h-4v3c0,0.9-0.5,1.4-1.4,1.4h-2l-0.3-1.1
		c0.8,0,1.4,0,1.8,0c0.5,0,0.7-0.2,0.7-0.7v-2.7h-4.6V92.1z"/>
</g>
<path class="st1" d="M53,68.6l33-33.8c0.6-0.6,0.5-1.6-0.1-2.1l0,0c-0.5-0.4-1.3-0.4-1.8,0L52.9,58.7c-0.7,0.6-1.8,0.6-2.5,0
	l-12.2-9.6c-0.8-0.7-2.1-0.5-2.8,0.3L34,50.9c-0.7,0.8-0.6,2,0.2,2.8l16,15C51,69.4,52.3,69.4,53,68.6z"/>
</svg>
