<?xml version="1.0" encoding="utf-8"?>
<!-- Generator: Adobe Illustrator 19.1.1, SVG Export Plug-In . SVG Version: 6.00 Build 0)  -->
<svg version="1.1" id="图层_1" xmlns="http://www.w3.org/2000/svg" xmlns:xlink="http://www.w3.org/1999/xlink" x="0px" y="0px"
	 viewBox="0 0 120 120" style="enable-background:new 0 0 120 120;" xml:space="preserve">
<style type="text/css">
	.st0{opacity:0.66;enable-background:new    ;}
	.st1{enable-background:new    ;}
	.st2{fill:#FFFFFF;}
</style>
<path class="st0" d="M116,120H4c-2.2,0-4-1.8-4-4V4c0-2.2,1.8-4,4-4h112c2.2,0,4,1.8,4,4v112C120,118.2,118.2,120,116,120z"/>
<g class="st1">
	<path class="st2" d="M49.3,90.3h-9.9v4.8c0,0.7,0.3,1,1,1h8.2c0.4,0,0.7-0.1,0.9-0.3c0.3-0.3,0.5-1.3,0.6-3.1l1.1,0.4
		c-0.2,2-0.4,3.2-0.8,3.6c-0.4,0.3-0.8,0.5-1.5,0.5h-8.8c-1.2,0-1.8-0.6-1.8-1.9v-8.4h1.2v2.3h8.8V85H37.4v-1.1h11.9V90.3z"/>
	<path class="st2" d="M53.9,88l1.3-4.4l1.1,0.2l-0.9,3.2h2.8c0.3-1.3,0.6-2.6,0.8-3.9l1.2,0.1c-0.2,1.3-0.4,2.5-0.8,3.8h7.5V88H59
		c-0.2,0.8-0.4,1.4-0.6,1.8H65v1c-0.4,1.4-1.3,2.6-2.6,3.7c1.3,0.8,2.9,1.5,4.7,2.1l-0.6,1.1c-2-0.8-3.7-1.6-5.1-2.4
		c-1.3,0.9-2.9,1.7-4.9,2.5l-0.6-1.1c1.8-0.7,3.3-1.4,4.5-2.2c-1.2-0.9-2.1-2-2.7-3.1c-1.2,2.5-2.7,4.5-4.5,6l-0.6-1.1
		c2.3-2,4-4.8,5.2-8.4H53.9z M58.6,90.8c0.5,1.1,1.5,2.1,2.7,3c1.2-0.9,2-1.9,2.4-3H58.6z M62.8,83.1c1.1,0.9,2.1,1.7,2.9,2.6
		l-0.8,0.8c-0.7-0.8-1.6-1.7-2.8-2.7L62.8,83.1z"/>
	<path class="st2" d="M69.7,84.4h5.7v-1.4h1.2v1.4h5.7v1.1h-5.7V87h4.8v1.1h-4.8v1.5h6.3v1h-5.8c0.4,1,1,1.9,1.6,2.7
		c0.9-0.4,1.8-1.1,2.6-1.9l0.8,0.8c-0.8,0.8-1.7,1.5-2.8,1.9c1.1,1.1,2.3,2,3.8,2.5l-0.6,1c-3-1.2-5.2-3.5-6.5-7h-0.6
		c-0.6,0.8-1.3,1.5-2.2,2.2v3.4c1.1-0.3,2.3-0.7,3.6-1.3l0.2,1.1c-1.7,0.7-3.4,1.2-5.1,1.6l-0.4-1c0.3-0.1,0.5-0.3,0.5-0.6v-2.5
		c-0.9,0.5-1.9,1-2.9,1.4l-0.6-1c2.5-0.9,4.4-2,5.6-3.4h-5.1v-1h6.3v-1.5h-4.8V87h4.8v-1.5h-5.7V84.4z"/>
</g>
<path class="st2" d="M53,68.6l33-33.8c0.6-0.6,0.5-1.6-0.1-2.1l0,0c-0.5-0.4-1.3-0.4-1.8,0l-31.2,26c-0.7,0.6-1.8,0.6-2.5,0
	l-12.2-9.6c-0.8-0.7-2.1-0.5-2.8,0.3L34,50.9c-0.7,0.8-0.6,2,0.2,2.8l16,15C51,69.4,52.3,69.4,53,68.6z"/>
</svg>
