<?xml version="1.0" encoding="utf-8"?>
<!-- Generator: Adobe Illustrator 19.1.1, SVG Export Plug-In . SVG Version: 6.00 Build 0)  -->
<svg version="1.1" id="图层_1" xmlns="http://www.w3.org/2000/svg" xmlns:xlink="http://www.w3.org/1999/xlink" x="0px" y="0px"
	 viewBox="0 0 120 120" style="enable-background:new 0 0 120 120;" xml:space="preserve">
<style type="text/css">
	.st0{opacity:0.66;}
	.st1{fill:#FFFFFF;}
</style>
<path class="st0" d="M116,120H4c-2.2,0-4-1.8-4-4V4c0-2.2,1.8-4,4-4h112c2.2,0,4,1.8,4,4v112C120,118.2,118.2,120,116,120z"/>
<g>
	<path class="st1" d="M49.3,90.3h-9.9v4.8c0,0.7,0.3,1,1,1h8.2c0.4,0,0.7-0.1,0.9-0.3c0.3-0.3,0.5-1.3,0.6-3.1l1.1,0.4
		c-0.2,2-0.4,3.2-0.8,3.6c-0.4,0.3-0.8,0.5-1.5,0.5h-8.8c-1.2,0-1.8-0.6-1.8-1.9v-8.4h1.2v2.3h8.8V85H37.4v-1.1h11.9V90.3z"/>
	<path class="st1" d="M52.8,89.5h1v-5.8h3.4v5.8h1.1v-5.8h3.4v5.8h0.9v1h-0.9v6c0,0.7-0.4,1.1-1.1,1.1h-0.9l-0.3-1
		c0.3,0,0.6,0,0.8,0s0.4-0.2,0.4-0.5v-5.7h-1.4v0.2c0,2.8-0.3,5.2-0.9,6.9l-0.8-0.7c0.5-1.6,0.7-3.7,0.8-6.1v-0.3h-1.1v6
		c0,0.8-0.4,1.1-1.2,1.1H55l-0.3-1c0.3,0,0.6,0,0.9,0c0.4,0,0.5-0.2,0.5-0.6v-5.7h-1.4c0,2.9-0.5,5.3-1.3,7.2l-0.8-0.7
		c0.7-1.7,1.1-3.8,1.1-6.4h-1V89.5z M56.1,89.5v-4.8h-1.4v4.8H56.1z M60.6,89.5v-4.8h-1.4v4.8H60.6z M63.2,97.6l-0.2-1
		c0.9,0,1.5,0.1,1.8,0.1c0.5,0,0.7-0.3,0.7-0.8V83.1h1.1v13c0,1-0.5,1.5-1.4,1.5H63.2z M63,84.5h1v9.9h-1V84.5z"/>
	<path class="st1" d="M69.3,83.7h4.5v0.9c-0.4,1.4-0.9,2.9-1.5,4.5c0.9,1.4,1.4,2.6,1.4,3.8c0,0.7-0.1,1.2-0.4,1.5
		c-0.4,0.4-1.2,0.6-2.2,0.6l-0.4-1.2c0.3,0,0.5,0.1,0.6,0.1c0.5,0,0.8-0.1,1-0.3c0.2-0.1,0.3-0.4,0.3-0.7c0-1.1-0.5-2.3-1.4-3.6
		c0.6-1.6,1.1-3.1,1.5-4.5h-2.3v13h-1.1V83.7z M76.7,93.1c-0.7,1.4-1.4,2.6-2.2,3.6l-0.9-0.7c0.9-1,1.6-2.1,2.2-3.5L76.7,93.1z
		 M79.1,83.3c1,1.6,2.4,3,4.3,4.1l-0.7,1c-1.7-1-3.1-2.3-4.2-4c-1.2,1.7-2.6,3.1-4.3,4.1l-0.7-1c1.8-1.1,3.2-2.5,4.4-4.2H79.1z
		 M76.3,97.6L76,96.4c0.7,0,1.2,0.1,1.5,0.1c0.3,0,0.4-0.2,0.4-0.6v-4.5h-3.7v-1.1H78v-1.9h-2.1v-1.1h5.2v1.1h-2v1.9h3.6v1.1h-3.6
		v4.8c0,0.9-0.4,1.3-1.2,1.3H76.3z M81,92.6c0.9,1.3,1.5,2.5,2,3.5l-1,0.7c-0.4-1-1.1-2.2-1.9-3.6L81,92.6z"/>
</g>
<path class="st1" d="M53,68.6l33-33.8c0.6-0.6,0.5-1.6-0.1-2.1l0,0c-0.5-0.4-1.3-0.4-1.8,0L52.9,58.7c-0.7,0.6-1.8,0.6-2.5,0
	l-12.2-9.6c-0.8-0.7-2.1-0.5-2.8,0.3L34,50.9c-0.7,0.8-0.6,2,0.2,2.8l16,15C51,69.4,52.3,69.4,53,68.6z"/>
</svg>
