<?xml version="1.0" encoding="utf-8"?>
<!-- Generator: Adobe Illustrator 19.1.1, SVG Export Plug-In . SVG Version: 6.00 Build 0)  -->
<svg version="1.1" id="图层_1" xmlns="http://www.w3.org/2000/svg" xmlns:xlink="http://www.w3.org/1999/xlink" x="0px" y="0px"
	 viewBox="0 0 120 120" style="enable-background:new 0 0 120 120;" xml:space="preserve">
<style type="text/css">
	.st0{fill:#09BB07;}
	.st1{fill:#FFFFFF;}
</style>
<path class="st0" d="M60,112L60,112C31.3,112,8,88.7,8,60v0C8,31.3,31.3,8,60,8h0c28.7,0,52,23.3,52,52v0C112,88.7,88.7,112,60,112z
	"/>
<path class="st1" d="M53,77.8L86,44c0.6-0.6,0.5-1.6-0.1-2.1l0,0c-0.5-0.4-1.3-0.4-1.8,0L52.9,67.8c-0.7,0.6-1.8,0.6-2.5,0
	l-12.2-9.6c-0.8-0.7-2.1-0.5-2.8,0.3L34,60.1c-0.7,0.8-0.6,2,0.2,2.8l16,15C51,78.6,52.3,78.6,53,77.8z"/>
</svg>
