<?xml version="1.0" encoding="utf-8"?>
<!-- Generator: Adobe Illustrator 19.1.1, SVG Export Plug-In . SVG Version: 6.00 Build 0)  -->
<svg version="1.1" id="图层_1" xmlns="http://www.w3.org/2000/svg" xmlns:xlink="http://www.w3.org/1999/xlink" x="0px" y="0px"
	 viewBox="0 0 20 20" style="enable-background:new 0 0 20 20;" xml:space="preserve">
<style type="text/css">
	.st0{fill:#999999;}
</style>
<g>
	<path class="st0" d="M10,8.5c-0.8,0-1.5,0.7-1.5,1.5c0,0.8,0.7,1.5,1.5,1.5c0.8,0,1.5-0.7,1.5-1.5C11.5,9.2,10.8,8.5,10,8.5L10,8.5
		z M10,13c-1.7,0-3-1.3-3-3c0-1.7,1.3-3,3-3s3,1.3,3,3C13,11.7,11.7,13,10,13L10,13z M10,4.5C6.1,4.5,3.2,8,2.5,10
		c0.6,2,3.5,5.5,7.5,5.5s6.8-3.5,7.5-5.5C16.8,8,13.9,4.5,10,4.5L10,4.5z M10,17c-5,0-8.5-4.5-9-7c0.5-2.5,4-7,9-7c5,0,8.5,4.5,9,7
		C18.5,12.5,15,17,10,17L10,17z M10,17"/>
</g>
</svg>
